<?xml version="1.0" encoding="UTF-8" standalone="no"?>

<!-- Created with Inkscape (http://www.inkscape.org/) -->

<svg
   xmlns:svg="http://www.w3.org/2000/svg"
   xmlns="http://www.w3.org/2000/svg"
   version="1.0"
   width="12"
   height="25"
   id="svg1361">
  
<defs
     id="defs1363" />
  
<g
     id="layer1">
    
<g
       transform="translate(-185.853,-572.067)"
       style="fill:#32f2ff"
       id="g3012">
      
<path
         d="M 192.60331,579.98385 C 191.53097,583.48385 190.45863,586.98385 189.3863,590.48385 C 189.17863,590.48651 188.97096,590.48918 188.7633,590.49184 C 189.58896,587.76084 190.41463,585.02985 191.2403,582.29885 C 190.29212,583.17224 188.92607,583.40836 187.67938,583.30169 C 186.75146,583.21371 185.86871,582.45556 185.86074,581.48186 C 185.76797,580.59169 186.52225,579.69501 187.4373,579.73383 C 188.41358,579.70144 189.26697,580.73909 188.96664,581.68892 C 188.92369,582.14093 188.48482,582.37485 188.28868,582.68445 C 188.62169,582.89438 189.0798,582.68395 189.44654,582.61681 C 190.40964,582.31936 191.32514,581.66187 191.72174,580.71224 C 191.79926,580.4741 191.87678,580.23596 191.95431,579.99782 C 192.17064,579.99316 192.38697,579.98851 192.60331,579.98385 z "
         style="fill:#000000;fill-opacity:1"
         id="path3014" />
    
</g>
  
</g>

</svg>
