<?xml version="1.0" encoding="UTF-8" standalone="no"?>
<!-- Created with Inkscape (http://www.inkscape.org/) -->
<svg
   xmlns:svg="http://www.w3.org/2000/svg"
   xmlns="http://www.w3.org/2000/svg"
   version="1.0"
   width="100%"
   height="100%"
   id="svg2">
  <defs
     id="defs7" />
  <path
     d="M 669.77904,48.253743 C 664.45709,46.305594 660.51317,43.525839 657.94725,39.914469 C 655.38131,36.303229 654.09835,31.979166 654.09835,26.942266 C 654.09835,19.339596 656.83059,12.948536 662.29509,7.769066 C 667.75954,2.589792 675.02967,0.000106 684.10549,0 C 693.22874,0.000106 700.57014,2.649188 706.12972,7.947255 C 711.68918,13.245517 714.46892,19.695975 714.46899,27.298646 C 714.46892,32.145476 713.19784,36.362625 710.65574,39.950107 C 708.11351,43.537719 704.25273,46.305594 699.07342,48.253743 C 705.48818,50.344555 710.37057,53.718274 713.7206,58.374911 C 717.07048,63.031641 718.74548,68.59115 718.74554,75.053457 C 718.74548,83.986715 715.58558,91.49443 709.26586,97.576622 C 702.94602,103.65883 694.63051,106.69993 684.31932,106.69993 C 674.00805,106.69993 665.69254,103.64695 659.37278,97.540983 C 653.05298,91.435033 649.89308,83.820407 649.89308,74.697078 C 649.89308,67.902151 651.61558,62.211969 655.06059,57.626514 C 658.50557,53.041155 663.41172,49.9169 669.77904,48.253743 L 669.77904,48.253743 z M 667.21311,26.514611 C 667.21309,31.456477 668.80491,35.495436 671.9886,38.631503 C 675.17222,41.767704 679.3062,43.335771 684.39059,43.335709 C 689.33234,43.335771 693.38318,41.779583 696.54312,38.667142 C 699.70297,35.554832 701.28291,31.74158 701.28296,27.227369 C 701.28291,22.523248 699.65545,18.567442 696.40057,15.359943 C 693.14559,12.152623 689.09474,10.548918 684.24804,10.548824 C 679.35373,10.548918 675.29101,12.116985 672.05987,15.253029 C 668.82867,18.389253 667.21309,22.14311 667.21311,26.514611 L 667.21311,26.514611 M 663.07911,74.768354 C 663.07909,78.427207 663.94629,81.967237 665.68069,85.388452 C 667.41504,88.809709 669.99284,91.458791 673.41411,93.335709 C 676.83532,95.212649 680.51789,96.151113 684.46187,96.151105 C 690.59155,96.151113 695.65212,94.179151 699.64362,90.235211 C 703.63501,86.291298 705.63073,81.278236 705.6308,75.196009 C 705.63073,69.018805 703.57561,63.910708 699.46544,59.871703 C 695.35513,55.832788 690.2114,53.813308 684.03422,53.813257 C 677.99949,53.813308 672.99831,55.80903 669.03065,59.800427 C 665.06295,63.791915 663.07909,68.781219 663.07911,74.768354 L 663.07911,74.768354 z"
     id="text4"
     style="font-size:90px;font-family:'Bitstream Vera Sans,Arial,Helvetica,sans-serif'" />
</svg>