<?xml version="1.0" encoding="UTF-8" standalone="no"?>
<!-- Created with Inkscape (http://www.inkscape.org/) -->
<svg
   xmlns:svg="http://www.w3.org/2000/svg"
   xmlns="http://www.w3.org/2000/svg"
   version="1.0"
   width="100%"
   height="100%"
   id="svg2">
  <defs
     id="defs7" />
  <path
     d="M 406.27227,77.548111 L 419.74341,76.407698 C 420.74125,82.965096 423.05771,87.895004 426.69279,91.197433 C 430.32784,94.499892 434.7113,96.151113 439.8432,96.151105 C 446.02039,96.151113 451.24727,93.822772 455.52387,89.166073 C 459.80038,84.509405 461.93864,78.332172 461.9387,70.634355 C 461.93864,63.316744 459.88353,57.543407 455.77334,53.314327 C 451.66305,49.085349 446.28173,46.970835 439.62937,46.970777 C 435.49533,46.970835 431.76524,47.909298 428.43905,49.786173 C 425.11283,51.663156 422.49938,54.098412 420.59872,57.091945 L 408.5531,55.523877 L 418.67427,1.853172 L 470.63436,1.853172 L 470.63436,14.112616 L 428.93799,14.112616 L 423.3072,42.195296 C 429.57944,37.823778 436.16058,35.637988 443.0506,35.637918 C 452.17386,35.637988 459.87164,38.79788 466.14399,45.117605 C 472.41618,51.437449 475.55231,59.562887 475.55239,69.493942 C 475.55231,78.949895 472.79631,87.122849 467.28439,94.012829 C 460.5844,102.4709 451.43734,106.69993 439.8432,106.69993 C 430.33972,106.69993 422.58254,104.03896 416.57163,98.717035 C 410.56069,93.395117 407.12757,86.338816 406.27227,77.548111 L 406.27227,77.548111 z"
id="text4"
     style="font-size:90px;font-family:'Bitstream Vera Sans,Arial,Helvetica,sans-serif'" />
</svg>