<?xml version="1.0" encoding="UTF-8" standalone="no"?>
<!-- Created with Inkscape (http://www.inkscape.org/) -->
<svg
   xmlns:dc="http://purl.org/dc/elements/1.1/"
   xmlns:cc="http://web.resource.org/cc/"
   xmlns:rdf="http://www.w3.org/1999/02/22-rdf-syntax-ns#"
   xmlns:svg="http://www.w3.org/2000/svg"
   xmlns="http://www.w3.org/2000/svg"
   xmlns:sodipodi="http://sodipodi.sourceforge.net/DTD/sodipodi-0.dtd"
   xmlns:inkscape="http://www.inkscape.org/namespaces/inkscape"
   version="1.0"
   width="1000"
   height="127"
   id="svg2"
   sodipodi:version="0.32"
   inkscape:version="0.45.1"
   sodipodi:docname="Accolade.svg"
   inkscape:output_extension="org.inkscape.output.svg.inkscape"
   sodipodi:docbase="C:\Users\Mikael\Pictures\Internet\Wikipedia\2009\Accolade">
  <metadata
     id="metadata20">
    <rdf:RDF>
      <cc:Work
         rdf:about="">
        <dc:format>image/svg+xml</dc:format>
        <dc:type
           rdf:resource="http://purl.org/dc/dcmitype/StillImage" />
      </cc:Work>
    </rdf:RDF>

  </metadata>
  <sodipodi:namedview
     inkscape:window-height="718"
     inkscape:window-width="1024"
     inkscape:pageshadow="2"
     inkscape:pageopacity="0.0"
     guidetolerance="10.0"
     gridtolerance="10.0"
     objecttolerance="10.0"
     borderopacity="1.0"
     bordercolor="#666666"
     pagecolor="#ffffff"
     id="base"
     width="45px"
     height="127px"
     inkscape:zoom="1.5890411"
     inkscape:cx="219"
     inkscape:cy="63.5"
     inkscape:window-x="-8"
     inkscape:window-y="-8"
     inkscape:current-layer="svg2" />
  <defs
     id="defs19" />
  <g
     style="fill:none;stroke:#000000;stroke-width:2"
     id="lines"
     transform="matrix(0.2566894,0,0,1.0045999,22.775871,-0.3311938)">
    <path
       d="M 11.5,125.5 L 1000,125.5"
       style="stroke-width:2"
       id="path34" />
    <path
       d="M 11.5,116.5 L 1000,116.5"
       style="stroke-width:2"
       id="path38" />
    <path
       d="M 11.5,108.5 L 1000,108.5"
       style="stroke-width:2"
       id="path42" />
    <path
       d="M 11.5,99.5 L 1000,99.5"
       style="stroke-width:2"
       id="path46" />
    <path
       d="M 11.5,90.5 L 1000,90.5"
       style="stroke-width:2"
       id="path50" />

    <path
       d="M 11.5,54.5 L 1000,54.5"
       style="stroke-width:2"
       id="path62" />
    <path
       d="M 11.499672,45.5 L 1000,45.5"
       style="stroke-width:2"
       id="path66" />
    <path
       d="M 11.5,36.5 L 1000,36.5"
       style="stroke-width:2"
       id="path70" />
    <path
       d="M 11.5,27.5 L 1000,27.5"
       style="stroke-width:2"
       id="path74" />
    <path
       d="M 11.5,18.5 L 1000,18.5"
       style="stroke-width:2"
       id="path78" />
    <path
       d="M 900,125.5 L 900,18.5"
       style="stroke-width:3"
       id="path78" />
    <path
       d="M 910,125.5 L 910,18.5"
       style="stroke-width:3"
       id="path78" />
  </g>
  <path
     d="M 21.830462,18.760152 C 20.630671,20.348633 18.911827,24.065146 18.224186,26.005046 C 17.192983,30.074752 16.849249,35.024778 17.192983,39.802645 C 17.361399,41.389351 17.705306,44.92483 18.224186,47.753924 C 19.080243,54.478789 19.255561,57.307883 19.255561,60.136976 C 19.080243,64.73381 17.880452,68.441449 15.986462,70.917349 C 15.642556,71.270542 15.47414,71.623735 15.47414,71.804769 C 15.47414,71.985802 15.642556,72.338995 15.986462,72.692188 C 17.880452,75.168089 19.080243,78.875728 19.255561,83.300401 C 19.255561,86.301654 19.080243,89.130748 18.224186,95.67458 C 17.705306,98.684707 17.361399,102.22019 17.192983,103.63473 C 16.849249,108.58476 17.192983,113.53479 18.224186,117.42346 C 19.080243,120.60574 22.174196,126.09 23.036983,126.09 C 23.380717,126.09 23.724451,125.7368 23.724451,125.38184 C 23.724451,125.20258 23.380717,124.67545 23.036983,124.14122 C 20.974405,121.13997 20.111618,118.13162 19.767884,113.53479 C 19.767884,110.70569 19.94303,108.05053 20.799087,101.33277 C 21.142821,98.684707 21.486728,95.50242 21.661873,94.260033 C 22.349514,85.774527 20.974405,78.522535 17.536718,73.219315 C 17.017665,72.511155 16.673931,71.804769 16.673931,71.804769 C 16.673931,71.804769 17.017665,71.098383 17.536718,70.390222 C 20.974405,65.087003 22.349514,57.83501 21.661873,49.168471 C 21.486728,48.107117 21.142821,44.92483 20.799087,42.097512 C 19.94303,35.559004 19.767884,32.903845 19.767884,30.074752 C 20.111618,25.477918 20.974405,22.469566 23.036983,19.468313 C 23.724451,18.406959 23.89977,18.053766 23.556035,17.700573 C 23.036983,17.345606 22.693249,17.51954 21.830462,18.760152 z "
     style="fill:#000000;fill-rule:evenodd;stroke:#000000;stroke-width:0pt;stroke-linecap:butt;stroke-linejoin:round;stroke-miterlimit:10"
     id="path126" />


<!--d="M 11.94922,18.866183 L 11.94922,125.11103" -->  <path
     d="M 26.724138,18 L 26.724138,125"
     style="fill:none;stroke:#000000;stroke-width:1.5px"
     id="path4180" />
</svg>
