<?xml version="1.0" encoding="UTF-8" standalone="no"?>
<!-- Created with Inkscape (http://www.inkscape.org/) -->
<svg
   xmlns:svg="http://www.w3.org/2000/svg"
   xmlns="http://www.w3.org/2000/svg"
   version="1.0"
   width="100%"
   height="100%"
   id="svg2">
  <defs
     id="defs7" />
  <path
     d="M 733.21454,80.755524 L 745.54526,79.61511 C 746.59062,85.412231 748.58634,89.617502 751.53244,92.230933 C 754.47846,94.844391 758.25608,96.151113 762.86529,96.151105 C 766.80918,96.151113 770.26605,95.248287 773.23592,93.442623 C 776.2057,91.636982 778.64095,89.225485 780.5417,86.208124 C 782.44233,83.190803 784.03415,79.116206 785.31717,73.984318 C 786.60008,68.852495 787.24156,63.625605 787.24163,58.303636 C 787.24156,57.733475 787.2178,56.878166 787.17034,55.737704 C 784.60435,59.824231 781.09996,63.138554 776.65716,65.680683 C 772.21425,68.222892 767.40315,69.493978 762.2238,69.493942 C 753.57563,69.493978 746.258,66.357844 740.27085,60.08553 C 734.28368,53.813308 731.29008,45.545319 731.2901,35.28154 C 731.29008,24.685279 734.41434,16.155945 740.66287,9.693513 C 746.91135,3.231273 754.73982,0.000106 764.14826,0 C 770.94317,0.000106 777.15603,1.829516 782.78689,5.488239 C 788.41762,9.147161 792.69415,14.362171 795.61653,21.133286 C 798.53876,27.904567 799.99992,37.704986 800,50.534569 C 799.99992,63.88695 798.55065,74.518918 795.65218,82.430506 C 792.75355,90.342139 788.44138,96.364941 782.71561,100.49893 C 776.98974,104.63293 770.27794,106.69993 762.58018,106.69993 C 754.40719,106.69993 747.73102,104.43098 742.55168,99.893085 C 737.37228,95.355201 734.25991,88.976019 733.21454,80.755524 L 733.21454,80.755524 z M 785.74484,34.640057 C 785.74477,27.274965 783.78468,21.430352 779.86458,17.106201 C 775.94435,12.782225 771.22827,10.620195 765.71632,10.620101 C 760.01422,10.620195 755.04868,12.948536 750.81967,17.605132 C 746.59062,22.261903 744.4761,28.296584 744.47612,35.709195 C 744.4761,42.361669 746.4837,47.766748 750.49893,51.924447 C 754.51411,56.082254 759.46777,58.16113 765.35995,58.161083 C 771.29955,58.16113 776.18194,56.082254 780.00713,51.924447 C 783.8322,47.766748 785.74477,42.005289 785.74484,34.640057 L 785.74484,34.640057 z"
     id="text4"
     style="font-size:90px;font-family:'Bitstream Vera Sans,Arial,Helvetica,sans-serif'" />
</svg>

