<?xml version="1.0" encoding="UTF-8" standalone="no"?>
<!-- Created with Inkscape (http://www.inkscape.org/) -->
<svg
   xmlns:svg="http://www.w3.org/2000/svg"
   xmlns="http://www.w3.org/2000/svg"
   version="1.0"
   width="100%"
   height="100%"
   id="svg2">
  <defs
     id="defs7" />
  <path
     d="M 554.09836,26.015681 L 541.33999,27.013542 C 540.19952,21.9768 538.58394,18.317977 536.49323,16.037063 C 533.02443,12.37833 528.74788,10.548918 523.66357,10.548824 C 519.57706,10.548918 515.98952,11.689331 512.90093,13.970064 C 508.86194,16.916221 505.67828,21.216524 503.34997,26.870991 C 501.0216,32.525613 499.80991,40.579775 499.7149,51.0335 C 502.80349,46.329352 506.58111,42.83684 511.04775,40.555952 C 515.51434,38.275191 520.19479,37.13478 525.0891,37.134712 C 533.64214,37.13478 540.92416,40.282793 546.93514,46.57876 C 552.946,52.874844 555.95145,61.012161 555.95153,70.990734 C 555.95145,77.548139 554.53782,83.642216 551.71062,89.272986 C 548.88328,94.903788 544.99875,99.215972 540.05701,102.20955 C 535.11518,105.20314 529.50815,106.69993 523.23592,106.69993 C 512.54451,106.69993 503.82511,102.76788 497.07769,94.903778 C 490.33024,87.039695 486.95651,74.079384 486.95653,56.022809 C 486.95651,35.828056 490.68662,21.145249 498.14683,11.97434 C 504.65667,3.991548 513.42359,0.000106 524.44761,0 C 532.66804,0.000106 539.40361,2.304689 544.65432,6.913756 C 549.9049,11.523021 553.05292,17.890322 554.09836,26.015681 L 554.09836,26.015681 z M 501.71063,71.06201 C 501.71059,75.481141 502.64907,79.710169 504.52602,83.749108 C 506.40293,87.78809 509.02825,90.864827 512.40199,92.979329 C 515.77568,95.093856 519.31572,96.151113 523.02209,96.151105 C 528.43901,96.151113 533.0957,93.965323 536.99217,89.593728 C 540.88851,85.222162 542.83671,79.282516 542.83678,71.774769 C 542.83671,64.552191 540.91227,58.862008 537.06343,54.704205 C 533.21448,50.546502 528.36773,48.467625 522.52317,48.467569 C 516.72603,48.467625 511.80799,50.546502 507.76907,54.704205 C 503.73008,58.862008 501.71059,64.314604 501.71063,71.06201 L 501.71063,71.06201 z"
     id="text4"
     style="font-size:90px;font-family:'Bitstream Vera Sans,Arial,Helvetica,sans-serif'" />
</svg>