<?xml version="1.0" encoding="UTF-8" standalone="no"?>
<!-- Created with Inkscape (http://www.inkscape.org/) -->
<svg
   xmlns:svg="http://www.w3.org/2000/svg"
   xmlns="http://www.w3.org/2000/svg"
   version="1.0"
   width="100%"
   height="100%"
   id="svg2">
  <defs
     id="defs7" />
  <path
     d="M 243.83465,77.334283 L 256.66429,75.623664 C 258.1373,82.893821 260.64383,88.132589 264.18389,91.339986 C 267.72389,94.547408 272.03608,96.151113 277.12046,96.151105 C 283.1551,96.151113 288.25132,94.060358 292.40913,89.878831 C 296.56683,85.697334 298.64569,80.517962 298.64576,74.340698 C 298.64569,68.448599 296.72125,63.589967 292.87242,59.76479 C 289.02347,55.939701 284.12921,54.027135 278.1896,54.027085 C 275.76617,54.027135 272.74883,54.502308 269.13756,55.452601 L 270.56308,44.19102 C 271.41836,44.286114 272.10736,44.333632 272.63008,44.33357 C 278.09452,44.333632 283.01255,42.908115 287.38418,40.057021 C 291.75571,37.206055 293.94151,32.810716 293.94155,26.870991 C 293.94151,22.166868 292.34967,18.27046 289.16607,15.181754 C 285.98236,12.093227 281.87214,10.548918 276.83536,10.548824 C 271.84601,10.548918 267.68826,12.116985 264.36209,15.253029 C 261.03585,18.389253 258.89758,23.093454 257.94726,29.365645 L 245.1176,27.084819 C 246.68566,18.484288 250.24946,11.820003 255.80898,7.091947 C 261.36848,2.364085 268.28222,0.000106 276.55024,0 C 282.25227,0.000106 287.50292,1.223672 292.30221,3.670706 C 297.1014,6.117942 300.7721,9.456023 303.31433,13.684961 C 305.85643,17.914082 307.12751,22.404453 307.12758,27.156094 C 307.12751,31.670303 305.91583,35.78054 303.49251,39.486814 C 301.06907,43.193219 297.48153,46.139284 292.72987,48.325018 C 298.90705,49.750589 303.70628,52.708534 307.12758,57.198859 C 310.54875,61.689281 312.25937,67.308187 312.25945,74.055595 C 312.25937,83.178924 308.93317,90.912345 302.28082,97.25588 C 295.62835,103.59943 287.21781,106.7712 277.04918,106.7712 C 267.87833,106.7712 260.26371,104.03896 254.20528,98.574483 C 248.14682,93.110014 244.68995,86.029955 243.83465,77.334283 L 243.83465,77.334283 z"
     id="text4"
     style="font-size:90px;font-family:'Bitstream Vera Sans,Arial,Helvetica,sans-serif'" />
</svg>


