<?xml version="1.0" encoding="UTF-8" standalone="no"?>
<!-- Created with Inkscape (http://www.inkscape.org/) -->
<svg
   xmlns:svg="http://www.w3.org/2000/svg"
   xmlns="http://www.w3.org/2000/svg"
   version="1.0"
   width="100%"
   height="100%"
   id="svg2">
  <defs
     id="defs7" />
  <path
     d="M 229.93585,92.587313 L 229.93585,104.91803 L 160.86956,104.91803 C 160.77453,101.82942 161.27345,98.859592 162.36635,96.008553 C 164.12448,91.304362 166.93988,86.671436 170.81254,82.109765 C 174.68519,77.548139 180.28033,72.273732 187.598,66.286529 C 198.95458,56.973201 206.6286,49.596158 210.6201,44.155381 C 214.61149,38.714726 216.60721,33.57099 216.60728,28.724163 C 216.60721,23.6399 214.78967,19.351475 211.15467,15.858874 C 207.51956,12.366451 202.77972,10.620195 196.93514,10.620101 C 190.75787,10.620195 185.81608,12.473365 182.10976,16.179615 C 178.40341,19.886044 176.52647,25.017899 176.47898,31.575195 L 163.29294,30.220954 C 164.19577,20.384973 167.59324,12.889139 173.48539,7.733428 C 179.3775,2.577913 187.28912,0.000106 197.22024,0 C 207.24633,0.000106 215.18169,2.77986 221.02638,8.339274 C 226.87093,13.898879 229.79322,20.788871 229.7933,29.009266 C 229.79322,33.190853 228.93792,37.30109 227.22737,41.339985 C 225.51669,45.379009 222.67753,49.631797 218.7099,54.09836 C 214.74217,58.565026 208.14915,64.694742 198.93087,72.487527 C 191.23303,78.949895 186.29125,83.333355 184.10548,85.637919 C 181.91967,87.942521 180.11402,90.258983 178.68853,92.587313 L 229.93585,92.587313 z"
     id="text4"
     style="font-size:90px;font-family:'Bitstream Vera Sans,Arial,Helvetica,sans-serif'" />
</svg>

