<?xml version="1.0" encoding="UTF-8" standalone="no"?>
<!-- Created with Inkscape (http://www.inkscape.org/) -->
<svg
   xmlns:svg="http://www.w3.org/2000/svg"
   xmlns="http://www.w3.org/2000/svg"
   version="1.0"
   width="100%"
   height="100%"
   id="svg2">
  <defs
     id="defs7" />
<path
d="M 2.483502e-11,53.385602 C -6.4876603e-06,41.031188 1.271077,31.088218 3.8132569,23.556665 C 6.3554158,16.025273 10.133031,10.216299 15.146114,6.129722 C 20.159156,2.043344 26.467061,0.000106 34.069849,0 C 39.676836,0.000106 44.594865,1.128638 48.823948,3.385602 C 53.052921,5.64277 56.545434,8.897696 59.301496,13.150392 C 62.057426,17.40327 64.219458,22.582644 65.787597,28.688524 C 67.355592,34.794558 68.139626,43.026908 68.139699,53.385602 C 68.139626,65.645085 66.88042,75.540537 64.36208,83.071989 C 61.8436,90.603482 58.077862,96.424337 53.06486,100.53457 C 48.051738,104.64481 41.720074,106.69993 34.069849,106.69993 C 23.996168,106.69993 16.084558,103.08862 10.334996,95.866001 C 3.4449883,87.170367 -6.4876603e-06,73.010248 2.483502e-11,53.385602 L 2.483502e-11,53.385602 z M 13.186029,53.385602 C 13.186011,70.539354 15.193611,81.955356 19.208837,87.633642 C 23.224013,93.311961 28.177679,96.151113 34.069849,96.151105 C 39.961939,96.151113 44.915604,93.300082 48.930862,87.598004 C 52.946007,81.89596 54.953609,70.491837 54.95367,53.385602 C 54.953609,36.184436 52.946007,24.756554 48.930862,19.101925 C 44.915604,13.447466 39.914422,10.620195 33.927297,10.620101 C 28.035128,10.620195 23.330927,13.114846 19.814681,18.104062 C 15.395559,24.471451 13.186011,36.231953 13.186029,53.385602 L 13.186029,53.385602 z" 
id="text4"
     style="font-size:10;font-family:'Bitstream Vera Sans,Arial,Helvetica,sans-serif'" />
</svg>